<svg xmlns="http://www.w3.org/2000/svg" viewBox="0 0 1920 1080" preserveAspectRatio="xMidYMid slice"><rect width="1920" height="1080" fill="#ffffff"/><g opacity="0.05" transform="translate(593.81 173.81) scale(2.0925)"><path fill="#000000" d="M70.81,17.33v22.12c0,.72-.58,1.3-1.3,1.3h-19.09c-.72,0-1.3.58-1.3,1.3v80.05c0,.72-.58,1.3-1.3,1.3h-24.71c-.72,0-1.3-.58-1.3-1.3V42.05c0-.72-.58-1.3-1.3-1.3H1.3c-.72,0-1.3-.58-1.3-1.3v-22.12c0-.72.58-1.3,1.3-1.3h68.22c.72,0,1.3.58,1.3,1.3Z"/><path fill="#000000" d="M148.86,75.62v45.69c0,.72-.58,1.3-1.3,1.3h-24.21c-.72,0-1.3-.58-1.3-1.3v-44.41c0-3.01-.17-6.47-1.43-9.26-.58-1.18-1.35-2.16-2.28-2.89-1.52-1.19-3.48-1.77-5.99-1.77-4.67,0-8.29,1.6-9.44,4.19-1.31,2.81-1.31,6.64-1.31,9.72v44.41c0,.72-.58,1.3-1.3,1.3h-24.21c-.72,0-1.3-.58-1.3-1.3V17.15c0-.71.58-1.3,1.3-1.3h22.69c.72,0,1.3.58,1.3,1.3v27.76c0,.52.58.83,1.01.53,18.29-12.59,36.09,1.39,36.27,1.54.65.51,1.27,1.05,1.83,1.61h0c8.28,8.33,9.67,15.07,9.67,27.04Z"/><path fill="#000000" d="M239.18,82.64c0,2.34-.28,5.1-.7,7.55-.11.62-.65,1.08-1.28,1.08h-56.86c-1.01,0-1.63,1.1-1.12,1.97,3.5,5.93,9.75,9.61,16.66,9.61,5.88,0,11.35-2.59,15.26-7.57.3-.38.78-.58,1.26-.49l21.78,3.91c.84.15,1.31,1.06.94,1.84-.49,1.02-1.11,2.28-1.47,2.92h.02s-.36.6-.36.6c-.33.56-.68,1.11-1.08,1.73-.51.77-.97,1.44-1.43,2.06l-.28.37h-.02c-.15.19-.31.4-.47.6l-.24.3c-.3.37-.59.72-.89,1.06l-.25.3c-.48.55-.96,1.06-1.49,1.6l-.29.3c-.34.34-.69.68-1.04,1.01l-.1.1c-.38.36-.77.71-1.17,1.05l-.43.37-.49-.43.42.49c-.61.51-1.18.97-1.75,1.41l-.49.36c-.67.49-1.35.97-2.05,1.42l-.2.13c-.8.51-1.61,1-2.43,1.45l-.24.13c-.2.11-.39.21-.59.31l-.14.07c-.38.2-.71.37-1.05.53l-.2.09c-.77.37-1.49.69-2.21.99l-.14.06c-.49.2-.92.37-1.35.53l-.53.19c-.53.19-1.07.37-1.61.54l-.1.03c-.58.18-1.19.35-1.88.53l-.49.13c-1.24.3-2.48.55-3.71.75l-.47.07c-1.31.19-2.6.32-3.89.39l-.48.02c-.77.03-1.4.05-1.99.05s-1.25-.02-2-.05c-.15,0-.3-.01-.44-.02h-.15c-.49-.04-.98-.07-1.46-.12h-.15c-.14-.02-.28-.04-.43-.05-.7-.07-1.33-.15-1.89-.24h-.02s-.02,0-.03,0l-.34-.05c-.53-.08-1.05-.18-1.57-.28l-.56-.12c-.47-.1-.93-.2-1.39-.31l-.15-.04c-.14-.03-.27-.07-.41-.1-.69-.18-1.29-.34-1.84-.51-.61-.19-1.21-.39-1.81-.6-.14-.05-.28-.1-.42-.16l-.11-.04c-.44-.16-.87-.33-1.3-.51l-.12-.05c-.13-.05-.27-.11-.4-.16-.58-.24-1.15-.5-1.71-.76l-.06-.03c-.51-.24-1.07-.52-1.62-.81-.13-.07-.26-.14-.39-.21l-.1-.06c-.4-.22-.8-.45-1.2-.68l-.48-.28c-.53-.32-1.05-.65-1.57-.99-5.14-3.42-9.56-7.99-12.77-13.22-.27-.44-.53-.88-.78-1.32l-.11-.21c-.24-.43-.47-.87-.7-1.31l-.13-.24c-.07-.13-.14-.26-.2-.4-.82-1.65-1.54-3.42-2.15-5.24-.34-1.02-.6-1.87-.81-2.69-.17-.67-.34-1.36-.48-2.06-.43-2.09-.71-4.24-.82-6.38-.04-.72-.06-1.46-.06-2.19s.02-1.47.06-2.19c.19-3.77.9-7.51,2.11-11.12.4-1.19.8-2.25,1.22-3.24.25-.57.51-1.13.78-1.69.06-.13.13-.26.19-.39l.16-.33c.06-.13.13-.26.19-.39.07-.13.14-.27.22-.4l.37-.69c.3-.54.61-1.07.93-1.6,3.22-5.22,7.63-9.79,12.77-13.21.51-.34,1.04-.67,1.57-.99l.48-.28c.4-.23.8-.46,1.2-.68l.1-.06c.13-.07.26-.14.39-.21.55-.29,1.1-.57,1.67-.84.57-.27,1.15-.52,1.72-.77.13-.06.27-.11.4-.16l.12-.05c.43-.18.86-.34,1.3-.51l.12-.04c.13-.05.27-.1.4-.15.59-.21,1.19-.41,1.8-.6.61-.19,1.23-.36,1.85-.52.13-.03.27-.07.4-.1l.15-.03c.46-.11.93-.22,1.39-.32l.32-.07c.56-.12,1.48-.28,2.05-.37h.1s.02-.02.03-.02h.02c.57-.09,1.19-.16,1.89-.24.14-.01.28-.03.43-.04h.15c.48-.06.97-.1,1.46-.12h.12c.16-.02.31-.03.47-.03.74-.03,1.4-.05,2-.05s1.22.01,1.97.05l.47.02c1.31.07,2.6.2,3.87.39l.52.08c1.23.19,2.47.44,3.67.74l.53.13c.69.18,1.3.35,1.85.52l.09.03c.56.18,1.1.36,1.62.54.16.06.32.12.49.18.49.18.92.35,1.34.52l.21.09c.7.29,1.44.62,2.18.98l.19.09c.37.18.7.35,1.04.52l.11.06-.27.58.34-.55c.21.11.4.21.6.32.73.41,1.91,1.11,2.62,1.56l.09.06c.75.48,1.46.97,2.14,1.48l.12.08c.14.1.28.2.42.31.59.45,1.16.9,1.76,1.41l.35.29c.45.38.9.78,1.33,1.19l.11.11c.35.33.69.66,1.03,1l.26.27c.54.56,1.03,1.08,1.48,1.6l-.42.49.49-.42.22.27c.29.34.58.68.86,1.03l.27.33c.33.42.65.84.97,1.26l.05.06c.26.34.51.69.75,1.05l.46.7c.2.31.41.63.6.94l.8,1.32h-.01c1.6,2.81,2.88,5.78,3.79,8.83,1.16,3.91,1.76,7.95,1.76,12ZM213.77,71.87c-1.01-5.98-7.93-10.65-16.73-10.65-8,0-15.59,4.63-16.73,10.62-.15.8.47,1.54,1.28,1.54h30.9c.8,0,1.42-.72,1.28-1.52Z"/><path fill="#000000" d="M92.3,134.13v104.66c0,.72-.58,1.3-1.3,1.3h-21.71c-.42,0-.81-.2-1.06-.54l-36.38-50.97c-.74-1.03-2.36-.5-2.35.77l.5,49.44c0,.72-.58,1.31-1.3,1.31H5.14c-.72,0-1.3-.58-1.3-1.3v-104.66c0-.72.58-1.3,1.3-1.3h21.51c.43,0,.84.22,1.08.58l36.53,54.89c.71,1.07,2.39.56,2.38-.73l-.5-53.44c0-.72.58-1.31,1.3-1.31h23.58c.72,0,1.3.58,1.3,1.3Z"/><path fill="#000000" d="M183.28,199.36c0,2.34-.28,5.1-.7,7.55-.11.62-.65,1.08-1.28,1.08h-56.86c-1.01,0-1.63,1.1-1.12,1.97,3.5,5.93,9.75,9.61,16.66,9.61,5.88,0,11.35-2.59,15.26-7.57.3-.38.78-.58,1.26-.49l21.78,3.91c.84.15,1.31,1.06.94,1.84-.49,1.02-1.11,2.28-1.47,2.92h.02s-.36.6-.36.6c-.33.56-.68,1.11-1.08,1.73-.51.77-.97,1.44-1.43,2.06l-.28.37h-.02c-.15.19-.31.4-.47.6l-.24.3c-.3.37-.59.72-.89,1.06l-.25.3c-.48.55-.96,1.06-1.49,1.6l-.29.3c-.34.34-.69.68-1.04,1.01l-.1.1c-.38.36-.77.71-1.17,1.05l-.43.37-.49-.43.42.49c-.61.51-1.18.97-1.75,1.41l-.49.36c-.67.49-1.35.97-2.05,1.42l-.2.13c-.8.51-1.61,1-2.43,1.45l-.24.13c-.2.11-.39.21-.59.31l-.14.07c-.38.2-.71.37-1.05.53l-.2.09c-.77.37-1.49.69-2.21.99l-.14.06c-.49.2-.92.37-1.35.53l-.53.19c-.53.19-1.07.37-1.61.54l-.1.03c-.58.18-1.19.35-1.88.53l-.49.13c-1.24.3-2.48.55-3.71.75l-.47.07c-1.31.19-2.6.32-3.89.39l-.48.02c-.77.03-1.4.05-1.99.05s-1.25-.02-2-.05c-.15,0-.3-.01-.44-.02h-.15c-.49-.04-.98-.07-1.46-.12h-.15c-.14-.02-.28-.04-.43-.05-.7-.07-1.33-.15-1.89-.24h-.02s-.02,0-.03,0l-.34-.05c-.53-.08-1.05-.18-1.57-.28l-.56-.12c-.47-.1-.93-.2-1.39-.31l-.15-.04c-.14-.03-.27-.07-.41-.1-.69-.18-1.29-.34-1.84-.51-.61-.19-1.21-.39-1.81-.6-.14-.05-.28-.1-.42-.16l-.11-.04c-.44-.16-.87-.33-1.3-.51l-.12-.05c-.13-.05-.27-.11-.4-.16-.58-.24-1.15-.5-1.71-.76l-.06-.03c-.51-.24-1.07-.52-1.62-.81-.13-.07-.26-.14-.39-.21l-.1-.06c-.4-.22-.8-.45-1.2-.68l-.48-.28c-.53-.32-1.05-.65-1.57-.99-5.14-3.42-9.56-7.99-12.77-13.22-.27-.44-.53-.88-.78-1.32l-.11-.21c-.24-.43-.47-.87-.7-1.31l-.13-.24c-.07-.13-.14-.26-.2-.4-.82-1.65-1.54-3.42-2.15-5.24-.34-1.02-.6-1.87-.81-2.69-.17-.67-.34-1.36-.48-2.06-.43-2.09-.71-4.24-.82-6.38-.04-.72-.06-1.46-.06-2.19s.02-1.47.06-2.19c.19-3.77.9-7.51,2.11-11.12.4-1.19.8-2.25,1.22-3.24.25-.57.51-1.13.78-1.69.06-.13.13-.26.19-.39l.16-.33c.06-.13.13-.26.19-.39.07-.13.14-.27.22-.4l.37-.69c.3-.54.61-1.07.93-1.6,3.22-5.22,7.63-9.79,12.77-13.21.51-.34,1.04-.67,1.57-.99l.48-.28c.4-.23.8-.46,1.2-.68l.1-.06c.13-.07.26-.14.39-.21.55-.29,1.1-.57,1.67-.84.57-.27,1.15-.52,1.72-.77.13-.06.27-.11.4-.16l.12-.05c.43-.18.86-.34,1.3-.51l.12-.04c.13-.05.27-.1.4-.15.59-.21,1.19-.41,1.8-.6.61-.19,1.23-.36,1.85-.52.13-.03.27-.07.4-.1l.15-.03c.46-.11.93-.22,1.39-.32l.32-.07c.56-.12,1.48-.28,2.05-.37h.1s.02-.02.03-.02h.02c.57-.09,1.19-.16,1.89-.24.14-.01.28-.03.43-.04h.15c.48-.06.97-.1,1.46-.12h.12c.16-.02.31-.03.47-.03.74-.03,1.4-.05,2-.05s1.22.01,1.97.05l.47.02c1.31.07,2.6.2,3.87.39l.52.08c1.23.19,2.47.44,3.67.74l.53.13c.69.18,1.3.35,1.85.52l.09.03c.56.18,1.1.36,1.62.54.16.06.32.12.49.18.49.18.92.35,1.34.52l.21.09c.7.29,1.44.62,2.18.98l.19.09c.37.18.7.35,1.04.52l.11.06-.27.58.34-.55c.21.11.4.21.6.32.73.41,1.91,1.11,2.62,1.56l.09.06c.75.48,1.46.97,2.14,1.48l.12.08c.14.1.28.2.42.31.59.45,1.16.9,1.76,1.41l.35.29c.45.38.9.78,1.33,1.19l.11.11c.35.33.69.66,1.03,1l.26.27c.54.56,1.03,1.08,1.48,1.6l-.42.49.49-.42.22.27c.29.34.58.68.86,1.03l.27.33c.33.42.65.84.97,1.26l.05.06c.26.34.51.69.75,1.05l.46.7c.2.31.41.63.6.94l.8,1.32h-.01c1.6,2.81,2.88,5.78,3.79,8.83,1.16,3.91,1.76,7.95,1.76,12ZM157.87,188.58c-1.01-5.98-7.93-10.65-16.73-10.65-8,0-15.59,4.63-16.73,10.62-.15.8.47,1.54,1.28,1.54h30.9c.8,0,1.42-.72,1.28-1.52Z"/><path fill="#000000" d="M231.73,219.71l-2.91,19.21c-.09.6-.59,1.06-1.2,1.1-2.78.16-10.22.59-12.49.59-.18,0-.33,0-.44,0-13.79-.72-21.07-7.8-21.07-20.46v-38.98c0-.72-.58-1.3-1.3-1.3h-8.43c-.72,0-1.3-.58-1.3-1.3v-19.21c0-.71.58-1.3,1.3-1.3h8.43c.72,0,1.3-.58,1.3-1.3v-22.27c0-.72.58-1.3,1.3-1.3h22.69c.72,0,1.3.58,1.3,1.3v22.27c0,.72.58,1.3,1.3,1.3h8.43c.72,0,1.3.58,1.3,1.3v19.21c0,.72-.58,1.3-1.3,1.3h-8.43c-.72,0-1.3.58-1.3,1.29,0,6.74,0,26.66,0,26.86l-.02.56c-.08,2.47-.19,5.85,1.79,7.86,1.16,1.18,2.97,1.78,5.37,1.78h4.41c.79,0,1.4.7,1.28,1.49Z"/><path fill="#000000" d="M120.08,251.92l-21.04,78.6c-.15.57-.66.96-1.25.96h-23.68c-.55,0-1.04-.35-1.22-.86l-9.68-27.12c-.41-1.15-2.03-1.15-2.44,0l-9.68,27.12c-.19.52-.67.86-1.22.86h-23.68c-.59,0-1.1-.39-1.25-.96L3.88,251.92c-.22-.82.4-1.63,1.25-1.63h22.61c.61,0,1.15.43,1.27,1.03l8.21,39.89c.26,1.29,2.05,1.41,2.49.18l14.36-40.24c.19-.52.67-.86,1.22-.86h13.35c.55,0,1.04.34,1.22.86l15.92,44.6,9.15-44.43c.12-.6.65-1.03,1.27-1.03h22.61c.85,0,1.47.81,1.25,1.63Z"/><path fill="#000000" d="M199.56,291.51c0,23.44-19.34,42.51-43.11,42.51s-43.11-19.07-43.11-42.51,19.34-42.51,43.11-42.51,43.11,19.07,43.11,42.51ZM175.24,291.51c0-10.22-8.43-18.53-18.79-18.53s-18.79,8.31-18.79,18.53,8.43,18.53,18.79,18.53,18.79-8.31,18.79-18.53Z"/><path fill="#000000" d="M246.63,251.64l-.77,18.99c-.03.74-.67,1.3-1.41,1.24-2.22-.21-6.66-.5-9.28.13-2.92.7-4.61,2.95-5.09,4.04-1.31,2.81-1.31,5.29-1.31,8.44v45.69c0,.72-.58,1.3-1.3,1.3h-24.21c-.72,0-1.3-.58-1.3-1.3v-78.6c0-.72.58-1.3,1.3-1.3h22.69c.72,0,1.3.58,1.3,1.3v2.27c0,.51.55.82.98.55,5.38-3.34,11.74-4.04,17.1-4.11.74,0,1.34.61,1.31,1.35Z"/><path fill="#000000" d="M320.42,329.51c.52.86-.1,1.96-1.11,1.96h-26.33c-.48,0-.92-.26-1.14-.69l-13.01-24.3c-.64-1.19-2.44-.74-2.44.61v23.07c0,.72-.58,1.3-1.3,1.3h-22.69c-.72,0-1.3-.58-1.3-1.3v-104.17c0-.71.58-1.3,1.3-1.3h22.69c.72,0,1.3.58,1.3,1.3v48.65c0,1.35,1.8,1.8,2.44.61l13.01-24.3c.23-.42.67-.68,1.14-.68h26.33c1.01,0,1.63,1.1,1.11,1.96l-22.79,37.96c-.25.41-.25.93,0,1.33l22.79,37.97Z"/><path fill="#000000" d="M331.72,324.47c0-5.68,3.84-9.67,9.21-9.67s9.06,3.99,9.06,9.67-3.53,9.68-9.21,9.68c-5.38,0-9.06-4.15-9.06-9.68Z"/></g></svg>